{"accessors" : [{"bufferView" : 0, "byteOffset" : 0, "componentType" : 5123, "count" : 1980, "type" : "SCALAR", "max" : [1021], "min" : [0]}, {"bufferView" : 1, "byteOffset" : 0, "componentType" : 5126, "count" : 1022, "type" : "VEC3", "max" : [2.5, 2.4375, 5.551119755337213E-17], "min" : [-1.1102199806005023E-16, 0, -4.125], "name" : "POSITION"}, {"bufferView" : 1, "byteOffset" : 12, "componentType" : 5126, "count" : 1022, "type" : "VEC2", "max" : [4.5625, 3.8987600803375244], "min" : [-4.5625, -3.5625], "name" : "TEXCOORD_0"}, {"bufferView" : 1, "byteOffset" : 20, "componentType" : 5126, "count" : 1022, "type" : "VEC3", "max" : [1.0000044107437134, 1.0000044107437134, 1.0000044107437134], "min" : [-1.0000044107437134, -1.0000044107437134, -1.0000044107437134], "name" : "NORMAL"}], "asset" : {"generator" : "Aspose.3D 24.6.0", "version" : "2.0"}, "buffers" : [{"uri" : "buffer.bin", "byteLength" : 36672}], "bufferViews" : [{"buffer" : 0, "byteOffset" : 0, "byteLength" : 3960, "target" : 34963}, {"buffer" : 0, "byteOffset" : 3964, "byteLength" : 32704, "byteStride" : 32, "target" : 34962}], "meshes" : [{"primitives" : [{"attributes" : {"POSITION" : 1, "TEXCOORD_0" : 2, "NORMAL" : 3}, "indices" : 0, "mode" : 4}], "name" : ""}], "nodes" : [{"mesh" : 0, "name" : "Mesh1 Group1 Model"}], "scene" : 0, "scenes" : [{"nodes" : [0]}]}
