{"accessors" : [{"bufferView" : 0, "byteOffset" : 0, "componentType" : 5123, "count" : 528, "type" : "SCALAR", "max" : [231], "min" : [0]}, {"bufferView" : 1, "byteOffset" : 0, "componentType" : 5126, "count" : 232, "type" : "VEC3", "max" : [34.52949905395508, 10.399800300598145, -0], "min" : [8.729530334472656, 0.17826999723911285, -8.399999618530273], "name" : "POSITION"}, {"bufferView" : 1, "byteOffset" : 12, "componentType" : 5126, "count" : 232, "type" : "VEC2", "max" : [25.799999237060547, 7.632609844207764], "min" : [-25.799999237060547, -9.221500396728516], "name" : "TEXCOORD_0"}, {"bufferView" : 1, "byteOffset" : 20, "componentType" : 5126, "count" : 232, "type" : "VEC3", "max" : [1.0000044107437134, 1.0000044107437134, 1.0000044107437134], "min" : [-1.0000044107437134, -1.0000044107437134, -1.0000044107437134], "name" : "NORMAL"}, {"bufferView" : 0, "byteOffset" : 1056, "componentType" : 5123, "count" : 2139, "type" : "SCALAR", "max" : [1003], "min" : [0]}, {"bufferView" : 2, "byteOffset" : 0, "componentType" : 5126, "count" : 1004, "type" : "VEC3", "max" : [0, 9.712499618530273, -0], "min" : [-28.741100311279297, -1.1102199806005023E-16, -9.258930206298828], "name" : "POSITION"}, {"bufferView" : 2, "byteOffset" : 12, "componentType" : 5126, "count" : 1004, "type" : "VEC2", "max" : [28.741100311279297, 10.308409690856934], "min" : [-28.741100311279297, -11.133099555969238], "name" : "TEXCOORD_0"}, {"bufferView" : 2, "byteOffset" : 20, "componentType" : 5126, "count" : 1004, "type" : "VEC3", "max" : [1.0000044107437134, 1.0000044107437134, 1.0000044107437134], "min" : [-1.0000044107437134, -1.0000044107437134, -1.0000044107437134], "name" : "NORMAL"}], "asset" : {"generator" : "Aspose.3D 24.6.0", "version" : "2.0"}, "buffers" : [{"uri" : "buffer.bin", "byteLength" : 44900}], "bufferViews" : [{"buffer" : 0, "byteOffset" : 0, "byteLength" : 5336, "target" : 34963}, {"buffer" : 0, "byteOffset" : 5340, "byteLength" : 7424, "byteStride" : 32, "target" : 34962}, {"buffer" : 0, "byteOffset" : 12768, "byteLength" : 32128, "byteStride" : 32, "target" : 34962}], "meshes" : [{"primitives" : [{"attributes" : {"POSITION" : 1, "TEXCOORD_0" : 2, "NORMAL" : 3}, "indices" : 0, "mode" : 4}], "name" : ""}, {"primitives" : [{"attributes" : {"POSITION" : 5, "TEXCOORD_0" : 6, "NORMAL" : 7}, "indices" : 4, "mode" : 4}], "name" : ""}], "nodes" : [{"mesh" : 0, "name" : "Mesh1 Group1 Model"}, {"mesh" : 1, "name" : "Mesh2 Group2 Model"}], "scene" : 0, "scenes" : [{"nodes" : [0, 1]}]}
